<svg xmlns="http://www.w3.org/2000/svg" width="20" height="20" viewBox="0 0 20 20"><path d="M10.014,20V16.127A6.145,6.145,0,0,0,15.722,7.74,5.75,5.75,0,0,0,12.273,4.3a6.16,6.16,0,0,0-8.4,5.7H0A10.037,10.037,0,0,1,13.177.494,9.712,9.712,0,0,1,19.5,6.814,10.028,10.028,0,0,1,10.014,20Z" transform="translate(0 0)" fill="currentColor" fill-rule="evenodd"/><path d="M13.756,23.532H9.9V19.683h3.853Z" transform="translate(-3.743 -7.381)" fill="currentColor" fill-rule="evenodd"/><path d="M8.1,28.811H5.123v-2.97H8.1Z" transform="translate(-1.936 -9.691)" fill="currentColor" fill-rule="evenodd"/><path d="M3.607,24.359h-2.5V21.888H3.583v2.471Z" transform="translate(-0.419 -8.208)" fill="currentColor" fill-rule="evenodd"/></svg>