<svg xmlns="http://www.w3.org/2000/svg" width="16" height="16" viewBox="0 0 16 16"><g opacity="0.4"><path d="M0,0H16V16H0Z" fill="none"/><path d="M6.62,14.725l-1.287-.345.525-1.959A7.325,7.325,0,0,1,3.7,11.172L2.264,12.608l-.943-.943,1.436-1.435a7.3,7.3,0,0,1-1.581-3.38L2.488,6.61a6,6,0,0,0,11.808,0l1.312.239a7.3,7.3,0,0,1-1.58,3.381l1.435,1.435-.943.943-1.435-1.436a7.325,7.325,0,0,1-2.158,1.248l.525,1.96-1.287.345-.525-1.96a7.381,7.381,0,0,1-2.493,0l-.525,1.96Z" transform="translate(-0.392 -2.203)" fill="currentColor"/></g></svg>