<svg xmlns="http://www.w3.org/2000/svg" width="88" height="48" viewBox="0 0 88 48"><g transform="translate(-80 -12)"><rect width="88" height="48" transform="translate(80 12)" fill="#317b92" opacity="0"/><g transform="translate(80 12)"><path d="M372.123,97.927h5.825v5.281h-5.825v7.278a7.075,7.075,0,0,0,.077,1.133,1.453,1.453,0,0,0,.413.833,2.242,2.242,0,0,0,1.058.509,9.264,9.264,0,0,0,2,.17,17.553,17.553,0,0,0,1.815-.1,9.108,9.108,0,0,0,1.7-.32v5.513a12.2,12.2,0,0,1-1.742.281c-.653.062-1.336.1-2.039.1a16.538,16.538,0,0,1-4.349-.493,7.426,7.426,0,0,1-2.874-1.415c-.734-.617-2.121-1.831-2.121-5.455V92.46h6.053Z" transform="translate(-341.983 -90.367)" fill="#317b92"/><path d="M313.834,106.8a10.1,10.1,0,1,0,10.124,10.1,10.114,10.114,0,0,0-10.124-10.1m0,14.9a4.8,4.8,0,1,1,4.813-4.8,4.808,4.808,0,0,1-4.813,4.8" transform="translate(-303.71 -99.178)" fill="#317b92"/><path d="M505.493,115.792v11.315h-6.049v-9.723a5.016,5.016,0,0,0-4.739-5.042h-.251a5.952,5.952,0,0,0-3.681,1.268v13.512h-6.1V106.96h6.1v.875a13.316,13.316,0,0,1,8.679-.281l.07.023a8.618,8.618,0,0,1,5.979,8.231" transform="translate(-417.493 -99.391)" fill="#317b92"/><g transform="translate(38.637)"><g opacity="0.7"><path d="M429.007,150.963a1.728,1.728,0,1,1,.175-1.312,1.731,1.731,0,0,1-.175,1.312" transform="translate(-425.776 -120.564)" fill="#317b92"/><path d="M451.37,112.249a1.727,1.727,0,1,1,.177-1.315,1.731,1.731,0,0,1-.177,1.315" transform="translate(-424.583 -105.346)" fill="#317b92"/><path d="M418.471,121.07a1.732,1.732,0,1,1,1.315.173,1.732,1.732,0,0,1-1.315-.173" transform="translate(-417.595 -113.527)" fill="#317b92"/><path d="M457.191,143.421a1.732,1.732,0,1,1,2.367-.636,1.733,1.733,0,0,1-2.367.636" transform="translate(-432.771 -112.385)" fill="#317b92"/><path d="M426.023,112.252a1.732,1.732,0,1,1,2.362.635,1.732,1.732,0,0,1-2.362-.635" transform="translate(-418.313 -109.645)" fill="#317b92"/><path d="M448.375,150.964a1.727,1.727,0,1,1,1.051.81,1.731,1.731,0,0,1-1.051-.81" transform="translate(-432.053 -116.265)" fill="#317b92"/><path d="M437,108.376a1.732,1.732,0,1,1,1.732,1.727A1.732,1.732,0,0,1,437,108.376" transform="translate(-420.876 -106.64)" fill="#317b92"/><path d="M437,153.077a1.732,1.732,0,1,1,1.732,1.728A1.732,1.732,0,0,1,437,153.077" transform="translate(-429.5 -119.245)" fill="#317b92"/></g><g transform="translate(1.069 5.254)"><g transform="translate(0 0)"><circle cx="2.495" cy="2.495" r="2.495" transform="translate(9.951)" fill="#317b92"/><circle cx="2.495" cy="2.495" r="2.495" transform="translate(19.903 9.924)" fill="#317b92"/><circle cx="2.495" cy="2.495" r="2.495" transform="translate(9.951 19.849)" fill="#317b92"/><circle cx="2.495" cy="2.495" r="2.495" transform="translate(0 9.924)" fill="#317b92"/><circle cx="2.495" cy="2.495" r="2.495" transform="translate(16.988 2.907)" fill="#317b92"/><circle cx="2.495" cy="2.495" r="2.495" transform="translate(16.988 16.942)" fill="#317b92"/><circle cx="2.495" cy="2.495" r="2.495" transform="translate(2.915 16.942)" fill="#317b92"/><circle cx="2.495" cy="2.495" r="2.495" transform="translate(2.915 2.907)" fill="#317b92"/></g><ellipse cx="4.423" cy="4.411" rx="4.423" ry="4.411" transform="translate(8.035 8.013)" fill="#317b92"/></g></g></g><path d="M2.724,0V-5.184L7.068,0H8.676V-8H6.828v5.16L2.484-8H.876V0Zm13.14-8.184a4.294,4.294,0,0,0-3.132,1.176A4.469,4.469,0,0,0,11.5-3.972,4.087,4.087,0,0,0,12.744-1,4.4,4.4,0,0,0,15.864.18,4.274,4.274,0,0,0,18.96-1a4.138,4.138,0,0,0,1.248-3A4.164,4.164,0,0,0,18.96-7.02,4.277,4.277,0,0,0,15.864-8.184Zm-.012,1.7a2.567,2.567,0,0,1,1.764.684,2.523,2.523,0,0,1,.7,1.8,2.4,2.4,0,0,1-.7,1.788,2.423,2.423,0,0,1-1.776.684,2.354,2.354,0,0,1-1.716-.66,2.388,2.388,0,0,1-.732-1.8A2.452,2.452,0,0,1,14.1-5.8,2.456,2.456,0,0,1,15.852-6.48ZM23.028-8V0H25.62a4.314,4.314,0,0,0,3.156-1.2,3.827,3.827,0,0,0,1.092-2.832A3.821,3.821,0,0,0,28.716-6.9,4.218,4.218,0,0,0,25.56-8Zm1.848,1.56h.492a2.642,2.642,0,0,1,1.944.684,2.369,2.369,0,0,1,.66,1.728,2.5,2.5,0,0,1-.78,1.932,2.886,2.886,0,0,1-1.824.54h-.492ZM37.212-8H32.688V0h4.524V-1.56H34.536V-3.336H37.08V-4.9H34.536V-6.444h2.676Zm7.9.612a3.869,3.869,0,0,0-2.376-.792,2.577,2.577,0,0,0-1.98.732,2.46,2.46,0,0,0-.7,1.8,1.968,1.968,0,0,0,.48,1.392,2.694,2.694,0,0,0,1.116.636l.66.228a3.909,3.909,0,0,1,.936.444.706.706,0,0,1,.276.576.828.828,0,0,1-.288.648,1.278,1.278,0,0,1-.84.276,1.859,1.859,0,0,1-1.008-.288,4.9,4.9,0,0,1-.744-.612l-.96,1.32a5.091,5.091,0,0,0,1.176.876A3.392,3.392,0,0,0,42.444.18a3.1,3.1,0,0,0,2.268-.816,2.869,2.869,0,0,0,.708-1.98A2,2,0,0,0,44.832-4.1a3.21,3.21,0,0,0-1.092-.612l-.6-.228A3.216,3.216,0,0,1,42.132-5.4a.561.561,0,0,1-.18-.444.716.716,0,0,1,.2-.5,1,1,0,0,1,.78-.276,1.949,1.949,0,0,1,1.344.576Z" transform="translate(79.852 59.184)" fill="#033354"/></g></svg>