<?xml version="1.0" standalone="no"?>
<!DOCTYPE svg PUBLIC "-//W3C//DTD SVG 20010904//EN"
 "http://www.w3.org/TR/2001/REC-SVG-20010904/DTD/svg10.dtd">
<svg version="1.0" xmlns="http://www.w3.org/2000/svg"
 width="700.000000pt" height="700.000000pt" viewBox="0 0 700.000000 700.000000"
 preserveAspectRatio="xMidYMid meet">
<metadata>
Created by potrace 1.14, written by Peter Selinger 2001-2017
</metadata>
<g transform="translate(0.000000,700.000000) scale(0.100000,-0.100000)"
fill="#000000" stroke="none">
<path d="M3375 6989 c-22 -4 -49 -10 -61 -13 -44 -9 -151 -60 -205 -97 -239
-162 -355 -454 -292 -736 61 -276 298 -495 583 -539 327 -50 674 166 766 478
23 76 25 86 31 173 28 403 -290 741 -697 742 -47 0 -103 -4 -125 -8z"/>
<path d="M1373 6165 c-229 -53 -417 -212 -502 -427 -40 -100 -50 -165 -46
-288 4 -118 20 -182 72 -287 98 -197 288 -336 518 -378 35 -7 193 -7 203 -1 4
2 28 7 52 11 96 14 250 95 338 179 101 94 184 256 207 401 7 47 7 169 0 205
-17 90 -31 134 -65 205 -85 177 -234 305 -425 365 -90 28 -263 36 -352 15z"/>
<path d="M5335 6165 c-224 -50 -402 -193 -496 -400 -135 -299 -39 -661 227
-851 127 -91 250 -131 404 -132 212 -1 374 67 517 216 135 141 202 326 190
522 -18 284 -190 515 -462 620 -32 13 -42 15 -119 30 -67 14 -189 11 -261 -5z"/>
<path d="M3305 4725 c-277 -49 -494 -162 -685 -355 -186 -188 -305 -423 -348
-683 -9 -56 -9 -309 0 -372 37 -256 161 -498 353 -690 316 -317 731 -432 1190
-331 174 39 407 171 553 314 168 165 279 356 337 578 147 567 -121 1159 -644
1424 -226 114 -514 158 -756 115z"/>
<path d="M678 4205 c-2 -2 -25 -5 -53 -8 -263 -28 -486 -202 -581 -452 -14
-38 -28 -87 -32 -109 -13 -74 -6 -248 11 -314 18 -67 77 -193 102 -219 8 -8
15 -18 15 -22 0 -8 81 -90 135 -136 40 -35 147 -89 231 -116 54 -18 93 -23
179 -23 134 -1 173 5 268 42 210 81 378 270 426 477 20 87 21 98 22 172 1 354
-258 654 -604 699 -62 8 -116 12 -119 9z"/>
<path d="M6225 4198 c-398 -46 -671 -392 -621 -790 36 -292 274 -542 566 -597
76 -14 253 -6 320 14 103 32 231 107 302 178 247 247 275 647 64 922 -113 148
-286 250 -456 270 -95 11 -103 11 -175 3z"/>
<path d="M1446 2223 c-1 -2 -18 -5 -37 -8 -171 -25 -341 -127 -447 -270 -219
-294 -178 -700 95 -944 95 -86 224 -148 348 -169 70 -11 218 -5 285 12 220 56
401 215 481 421 163 419 -95 877 -536 951 -39 7 -184 12 -189 7z"/>
<path d="M5380 2218 c-25 -4 -56 -9 -70 -12 -54 -12 -154 -57 -218 -99 -262
-175 -376 -499 -280 -797 21 -67 57 -142 71 -148 4 -2 7 -8 7 -14 0 -26 115
-149 185 -198 347 -241 832 -123 1023 249 65 125 77 179 76 341 -1 96 -5 128
-27 195 -66 201 -215 361 -407 439 -106 43 -256 62 -360 44z"/>
<path d="M3344 1388 c-236 -55 -435 -237 -510 -463 -26 -80 -29 -103 -28 -235
0 -108 4 -135 27 -201 80 -233 265 -405 499 -465 88 -23 245 -23 335 0 234 59
418 229 499 464 24 67 27 93 28 202 1 131 -3 157 -34 251 -52 154 -192 314
-340 386 -153 76 -321 97 -476 61z"/>
</g>
</svg>
