<svg xmlns="http://www.w3.org/2000/svg" width="60" height="16" viewBox="0 0 60 16"><g transform="translate(-1579 -672)"><rect width="4" height="4" transform="translate(1579 672)" fill="#1c1b1b" opacity="0.5"/><rect width="4" height="4" transform="translate(1583 672)" fill="#1c1b1b" opacity="0.9"/><rect width="4" height="4" transform="translate(1587 672)" fill="#1c1b1b"/><rect width="4" height="4" transform="translate(1591 672)" fill="#1c1b1b"/><rect width="4" height="4" transform="translate(1595 672)" fill="#1c1b1b" opacity="0.6"/><rect width="4" height="4" transform="translate(1599 672)" fill="#1c1b1b"/><rect width="4" height="4" transform="translate(1603 672)" fill="#1c1b1b"/><rect width="4" height="4" transform="translate(1607 672)" fill="#1c1b1b" opacity="0.8"/><rect width="4" height="4" transform="translate(1611 672)" fill="#1c1b1b" opacity="0.2"/><rect width="4" height="4" transform="translate(1615 672)" fill="#1c1b1b"/><rect width="4" height="4" transform="translate(1619 672)" fill="#1c1b1b" opacity="0.7"/><rect width="4" height="4" transform="translate(1623 672)" fill="#1c1b1b"/><rect width="4" height="4" transform="translate(1627 672)" fill="#1c1b1b" opacity="0.1"/><rect width="4" height="4" transform="translate(1631 672)" fill="#1c1b1b"/><rect width="4" height="4" transform="translate(1635 672)" fill="#1c1b1b" opacity="0.6"/><rect width="4" height="4" transform="translate(1579 676)" fill="#1c1b1b" opacity="0.8"/><rect width="4" height="4" transform="translate(1583 676)" fill="#1c1b1b" opacity="0.5"/><rect width="4" height="4" transform="translate(1587 676)" fill="#1c1b1b" opacity="0.6"/><rect width="4" height="4" transform="translate(1591 676)" fill="#1c1b1b" opacity="0.5"/><rect width="4" height="4" transform="translate(1595 676)" fill="#1c1b1b" opacity="0.8"/><rect width="4" height="4" transform="translate(1599 676)" fill="#1c1b1b" opacity="0.5"/><rect width="4" height="4" transform="translate(1603 676)" fill="#1c1b1b" opacity="0.3"/><rect width="4" height="4" transform="translate(1607 676)" fill="#1c1b1b" opacity="0.5"/><rect width="4" height="4" transform="translate(1611 676)" fill="#1c1b1b" opacity="0.9"/><rect width="4" height="4" transform="translate(1615 676)" fill="#1c1b1b" opacity="0.6"/><rect width="4" height="4" transform="translate(1619 676)" fill="#1c1b1b"/><rect width="4" height="4" transform="translate(1623 676)" fill="#1c1b1b" opacity="0.6"/><rect width="4" height="4" transform="translate(1627 676)" fill="#1c1b1b"/><rect width="4" height="4" transform="translate(1631 676)" fill="#1c1b1b" opacity="0.8"/><rect width="4" height="4" transform="translate(1635 676)" fill="#1c1b1b" opacity="0.5"/><rect width="4" height="4" transform="translate(1579 680)" fill="#1c1b1b" opacity="0.5"/><rect width="4" height="4" transform="translate(1583 680)" fill="#1c1b1b"/><rect width="4" height="4" transform="translate(1587 680)" fill="#1c1b1b" opacity="0.7"/><rect width="4" height="4" transform="translate(1591 680)" fill="#1c1b1b"/><rect width="4" height="4" transform="translate(1595 680)" fill="#1c1b1b"/><rect width="4" height="4" transform="translate(1599 680)" fill="#1c1b1b"/><rect width="4" height="4" transform="translate(1603 680)" fill="#1c1b1b" opacity="0.8"/><rect width="4" height="4" transform="translate(1607 680)" fill="#1c1b1b" opacity="0.4"/><rect width="4" height="4" transform="translate(1611 680)" fill="#1c1b1b" opacity="0.8"/><rect width="4" height="4" transform="translate(1615 680)" fill="#1c1b1b" opacity="0.9"/><rect width="4" height="4" transform="translate(1619 680)" fill="#1c1b1b" opacity="0.4"/><rect width="4" height="4" transform="translate(1623 680)" fill="#1c1b1b"/><rect width="4" height="4" transform="translate(1627 680)" fill="#1c1b1b" opacity="0.6"/><rect width="4" height="4" transform="translate(1631 680)" fill="#1c1b1b"/><rect width="4" height="4" transform="translate(1635 680)" fill="#1c1b1b"/><rect width="4" height="4" transform="translate(1579 684)" fill="#1c1b1b" opacity="0.1"/><rect width="4" height="4" transform="translate(1583 684)" fill="#1c1b1b" opacity="0.3"/><rect width="4" height="4" transform="translate(1587 684)" fill="#1c1b1b" opacity="0.8"/><rect width="4" height="4" transform="translate(1591 684)" fill="#1c1b1b" opacity="0.3"/><rect width="4" height="4" transform="translate(1595 684)" fill="#1c1b1b" opacity="0.8"/><rect width="4" height="4" transform="translate(1599 684)" fill="#1c1b1b" opacity="0.4"/><rect width="4" height="4" transform="translate(1603 684)" fill="#1c1b1b"/><rect width="4" height="4" transform="translate(1607 684)" fill="#1c1b1b" opacity="0.4"/><rect width="4" height="4" transform="translate(1611 684)" fill="#1c1b1b"/><rect width="4" height="4" transform="translate(1615 684)" fill="#1c1b1b" opacity="0.8"/><rect width="4" height="4" transform="translate(1619 684)" fill="#1c1b1b" opacity="0.5"/><rect width="4" height="4" transform="translate(1623 684)" fill="#1c1b1b"/><rect width="4" height="4" transform="translate(1627 684)" fill="#1c1b1b"/><rect width="4" height="4" transform="translate(1631 684)" fill="#1c1b1b" opacity="0.5"/><rect width="4" height="4" transform="translate(1635 684)" fill="#1c1b1b" opacity="0.8"/></g></svg>